<svg width="412" height="355" viewBox="0 0 412 355" fill="none" xmlns="http://www.w3.org/2000/svg">
<g filter="url(#filter0_d_116_131)">
<path d="M383 166.5C383 247.41 307.112 313 213.5 313C119.888 313 44 247.41 44 166.5C44 85.5903 119.888 20 213.5 20C307.112 20 383 85.5903 383 166.5Z" fill="#040B4E"/>
</g>
<mask id="mask0_116_131" style="mask-type:alpha" maskUnits="userSpaceOnUse" x="44" y="20" width="339" height="293">
<path d="M383 166.5C383 247.41 307.112 313 213.5 313C119.888 313 44 247.41 44 166.5C44 85.5903 119.888 20 213.5 20C307.112 20 383 85.5903 383 166.5Z" fill="#138EB5" fill-opacity="0.72" shape-rendering="crispEdges"/>
<path d="M383 166.5C383 247.41 307.112 313 213.5 313C119.888 313 44 247.41 44 166.5C44 85.5903 119.888 20 213.5 20C307.112 20 383 85.5903 383 166.5Z" stroke="black" shape-rendering="crispEdges"/>
<path d="M383 166.5C383 247.41 307.112 313 213.5 313C119.888 313 44 247.41 44 166.5C44 85.5903 119.888 20 213.5 20C307.112 20 383 85.5903 383 166.5Z" stroke="black" stroke-opacity="0.2" shape-rendering="crispEdges"/>
</mask>
<g mask="url(#mask0_116_131)">
<path d="M366.839 357.875C456.157 350.436 460.552 315.514 451.584 298.982V293.816L461 144L-29.9811 144L-108 350.643C-86.926 358.909 -32.4024 373.167 17.0993 364.075C78.9763 352.709 96.4633 298.982 206.766 304.148C317.069 309.314 255.191 367.174 366.839 357.875Z" fill="#3493D8"/>
<path d="M318.021 398.062C381.596 391.59 384.723 361.209 378.34 346.828V342.333L385.043 212L35.5745 212L-86 359.5C-71 366.691 22.3085 411.365 57.5425 403.455C101.585 393.568 125.574 346.828 204.085 351.322C282.596 355.816 238.553 406.152 318.021 398.062Z" fill="#FFF500"/>
<path d="M163.5 159L144 136H227L210.5 159H163.5Z" fill="#380B0B"/>
<path d="M168.316 110.749C155.768 130.903 173.544 132.246 184 130.399V78C184 80.5192 180.863 90.5959 168.316 110.749Z" fill="#E9E9E9"/>
<path d="M192.316 108.457C179.768 130.892 197.544 132.388 208 130.331V72C208 74.8044 204.863 86.0219 192.316 108.457Z" fill="#E9E9E9"/>
</g>
<g filter="url(#filter1_d_116_131)">
<ellipse cx="253" cy="290.5" rx="155" ry="56.5" fill="#B8B119"/>
</g>
<path d="M209.826 293.703C208.809 293.003 208.172 291.744 207.965 289.951C207.758 288.16 207.99 285.898 208.65 283.308C209.967 278.131 212.961 271.747 217.333 265.4C221.705 259.052 226.601 253.979 230.969 250.902C233.154 249.363 235.184 248.34 236.931 247.894C238.68 247.448 240.083 247.595 241.1 248.295C242.117 248.995 242.754 250.254 242.961 252.047C243.168 253.839 242.935 256.1 242.276 258.691C240.959 263.868 237.965 270.251 233.593 276.599C229.221 282.946 224.324 288.019 219.957 291.096C217.772 292.635 215.742 293.659 213.995 294.104C212.246 294.55 210.843 294.404 209.826 293.703Z" fill="#5C5C5C" stroke="black"/>
<ellipse cx="226.124" cy="238.325" rx="24.3723" ry="7.0591" transform="rotate(45.4697 226.124 238.325)" fill="#5C5C5C"/>
<path d="M235.654 220.238C235.708 220.927 235.441 221.649 234.831 222.38C234.218 223.112 233.28 223.825 232.063 224.468C229.63 225.754 226.17 226.714 222.263 227.019C218.356 227.323 214.789 226.912 212.186 226.019C210.884 225.573 209.846 225.014 209.128 224.385C208.411 223.758 208.036 223.086 207.982 222.397C207.928 221.708 208.195 220.986 208.805 220.256C209.418 219.523 210.356 218.81 211.574 218.167C214.007 216.882 217.466 215.922 221.373 215.617C225.28 215.312 228.847 215.724 231.45 216.616C232.752 217.063 233.79 217.622 234.509 218.251C235.225 218.877 235.6 219.549 235.654 220.238Z" fill="#B0B0B0" stroke="black"/>
<path d="M219.861 299.459C218.967 300.31 217.604 300.675 215.807 300.508C214.011 300.342 211.846 299.649 209.446 298.471C204.651 296.117 199.02 291.874 193.708 286.289C188.396 280.705 184.439 274.869 182.327 269.962C181.27 267.507 180.686 265.31 180.61 263.508C180.533 261.705 180.965 260.362 181.86 259.511C182.754 258.66 184.117 258.296 185.914 258.462C187.71 258.628 189.875 259.321 192.275 260.499C197.07 262.853 202.701 267.097 208.013 272.681C213.325 278.265 217.282 284.101 219.394 289.008C220.451 291.463 221.035 293.66 221.111 295.462C221.188 297.265 220.756 298.608 219.861 299.459Z" fill="#4A4A4A" stroke="black"/>
<ellipse cx="220.141" cy="292.063" rx="15.8781" ry="12.0779" transform="rotate(1.2644 220.141 292.063)" fill="#4A4A4A"/>
<ellipse cx="174.322" cy="279.493" rx="22.9547" ry="7.0591" transform="rotate(-60.9335 174.322 279.493)" fill="#4A4A4A"/>
<path d="M171.34 296.225C171.35 296.916 171.038 297.619 170.382 298.309C169.723 299.001 168.741 299.653 167.486 300.217C164.975 301.344 161.461 302.081 157.543 302.136C153.625 302.19 150.091 301.552 147.551 300.495C146.28 299.966 145.28 299.342 144.603 298.668C143.928 297.997 143.596 297.302 143.587 296.611C143.577 295.92 143.889 295.217 144.545 294.527C145.203 293.835 146.185 293.183 147.441 292.619C149.951 291.492 153.465 290.755 157.384 290.7C161.302 290.646 164.835 291.284 167.376 292.341C168.647 292.87 169.647 293.494 170.324 294.168C170.999 294.839 171.33 295.534 171.34 296.225Z" fill="#B0B0B0" stroke="black"/>
<ellipse cx="260.278" cy="291.073" rx="38.1619" ry="12.7219" transform="rotate(-0.528258 260.278 291.073)" fill="black"/>
<rect x="220" y="280" width="54" height="23" fill="black"/>
<ellipse cx="255.97" cy="299.202" rx="31.5" ry="5.5" transform="rotate(-8.70188 255.97 299.202)" fill="#242424"/>
<ellipse cx="220" cy="304" rx="7" ry="4" fill="#FCE3E3"/>
<ellipse cx="308" cy="286.5" rx="16" ry="15.5" fill="#FCE3E3"/>
<rect x="314.804" y="261" width="2" height="16.5427" transform="rotate(9.76005 314.804 261)" fill="black"/>
<mask id="mask1_116_131" style="mask-type:alpha" maskUnits="userSpaceOnUse" x="292" y="270" width="32" height="33">
<ellipse cx="308" cy="286.5" rx="16" ry="15.5" transform="rotate(8.57881 308 286.5)" fill="#C4C4C4"/>
</mask>
<g mask="url(#mask1_116_131)">
<path d="M313.875 267.666L307.685 308.701L327.619 300.584L330.005 284.763L313.875 267.666Z" fill="#0B0B0B" stroke="black"/>
</g>
<ellipse cx="223.415" cy="206.461" rx="14.7809" ry="13.7782" transform="rotate(-2.70583 223.415 206.461)" fill="#EAE7E7"/>
<ellipse cx="57" cy="279" rx="57" ry="27" fill="#B8B119"/>
<path d="M125 65L126.123 68.1094H129.755L126.816 70.0312L127.939 73.1406L125 71.2188L122.061 73.1406L123.184 70.0312L120.245 68.1094H123.877L125 65Z" fill="#FFF500"/>
<path d="M244 76L245.123 79.1094H248.755L245.816 81.0312L246.939 84.1406L244 82.2188L241.061 84.1406L242.184 81.0312L239.245 79.1094H242.877L244 76Z" fill="#FFF500"/>
<path d="M147 45L148.123 48.1094H151.755L148.816 50.0311L149.939 53.1406L147 51.2188L144.061 53.1406L145.184 50.0311L142.245 48.1094H145.877L147 45Z" fill="#FFF500"/>
<path d="M277 42L278.123 45.1094H281.755L278.816 47.0311L279.939 50.1406L277 48.2188L274.061 50.1406L275.184 47.0311L272.245 45.1094H275.877L277 42Z" fill="#FFF500"/>
<path d="M164 74L165.123 77.1094H168.755L165.816 79.0312L166.939 82.1406L164 80.2188L161.061 82.1406L162.184 79.0312L159.245 77.1094H162.877L164 74Z" fill="#FFF500"/>
<path d="M191 40L192.123 43.1094H195.755L192.816 45.0311L193.939 48.1406L191 46.2188L188.061 48.1406L189.184 45.0311L186.245 43.1094H189.877L191 40Z" fill="#FFF500"/>
<path d="M211 60L212.123 63.1094H215.755L212.816 65.0312L213.939 68.1406L211 66.2188L208.061 68.1406L209.184 65.0312L206.245 63.1094H209.877L211 60Z" fill="#FFF500"/>
<path d="M125 86L126.123 89.1094H129.755L126.816 91.0312L127.939 94.1406L125 92.2188L122.061 94.1406L123.184 91.0312L120.245 89.1094H123.877L125 86Z" fill="#FFF500"/>
<path d="M125 86L126.123 89.1094H129.755L126.816 91.0312L127.939 94.1406L125 92.2188L122.061 94.1406L123.184 91.0312L120.245 89.1094H123.877L125 86Z" fill="#FFF500"/>
<path d="M339 84L340.123 87.1094H343.755L340.816 89.0312L341.939 92.1406L339 90.2188L336.061 92.1406L337.184 89.0312L334.245 87.1094H337.877L339 84Z" fill="#FFF500"/>
<path d="M78 107L79.1226 110.109H82.7553L79.8164 112.031L80.9389 115.141L78 113.219L75.0611 115.141L76.1836 112.031L73.2447 110.109H76.8774L78 107Z" fill="#FFF500"/>
<path d="M227 98L228.123 101.109H231.755L228.816 103.031L229.939 106.141L227 104.219L224.061 106.141L225.184 103.031L222.245 101.109H225.877L227 98Z" fill="#FFF500"/>
<path d="M297 63L298.123 66.1094H301.755L298.816 68.0312L299.939 71.1406L297 69.2188L294.061 71.1406L295.184 68.0312L292.245 66.1094H295.877L297 63Z" fill="#FFF500"/>
<path d="M231 31L232.123 34.1094H235.755L232.816 36.0311L233.939 39.1406L231 37.2188L228.061 39.1406L229.184 36.0311L226.245 34.1094H229.877L231 31Z" fill="#FFF500"/>
<ellipse rx="49.4609" ry="47.0836" transform="matrix(0.957323 -0.289019 0.265507 0.964109 83.8511 61.6889)" fill="#040B4E"/>
<ellipse cx="82.3311" cy="62.3219" rx="32.2479" ry="31.0911" transform="rotate(-8.06299 82.3311 62.3219)" fill="#FAFF00"/>
<ellipse cx="99.693" cy="57.2692" rx="32.2479" ry="31.0911" transform="rotate(-8.06299 99.693 57.2692)" fill="#040B4E"/>
<path d="M103.751 54.4484L105.257 57.4897L108.669 57.0064L106.188 59.3693L107.695 62.4107L104.655 60.8297L102.175 63.1926L102.777 59.8526L99.7376 58.2717L103.149 57.7884L103.751 54.4484Z" fill="#FFF500"/>
<ellipse cx="152" cy="235.5" rx="12" ry="6.5" fill="#831919"/>
<rect x="136.651" y="229.779" width="7" height="2.44616" transform="rotate(39.0002 136.651 229.779)" fill="#831919"/>
<ellipse cx="135.5" cy="228.5" rx="1.5" ry="3.5" fill="#831919"/>
<rect x="162.616" y="234.113" width="7" height="2.44616" transform="rotate(-24.0698 162.616 234.113)" fill="#831919"/>
<ellipse cx="168.327" cy="230.687" rx="1.5" ry="3.5" transform="rotate(-37.7041 168.327 230.687)" fill="#831919"/>
<path d="M133.077 224.129C132.598 225.966 134.474 226.809 135.471 227C135.87 224.32 136.429 219.19 135.471 220.109C134.274 221.257 133.675 221.832 133.077 224.129Z" fill="#831919"/>
<path d="M138.547 224.923C139.85 223.541 138.609 221.901 137.826 221.254C136.189 223.413 133.235 227.644 134.516 227.298C136.118 226.866 136.919 226.65 138.547 224.923Z" fill="#831919"/>
<path d="M170.078 225.871C170.454 224.01 168.535 223.273 167.528 223.137C167.278 225.835 167.004 230.988 167.909 230.017C169.041 228.804 169.607 228.198 170.078 225.871Z" fill="#831919"/>
<path d="M164.609 227.92C164.849 229.804 166.903 229.887 167.9 229.693C167.273 227.058 165.881 222.088 165.334 223.298C164.651 224.81 164.309 225.565 164.609 227.92Z" fill="#831919"/>
<rect x="147.354" y="237.563" width="7" height="2.44616" transform="rotate(129.713 147.354 237.563)" fill="#831919"/>
<ellipse cx="142.343" cy="243.482" rx="1.20483" ry="2.44453" transform="rotate(-33.0623 142.343 243.482)" fill="#831919"/>
<rect x="151.569" y="237.251" width="7" height="2.44616" transform="rotate(120.745 151.569 237.251)" fill="#831919"/>
<ellipse cx="147.287" cy="243.792" rx="1.20483" ry="2.34164" transform="rotate(-33.0623 147.287 243.792)" fill="#831919"/>
<rect x="155.037" y="236" width="7" height="2.44616" transform="rotate(56.3784 155.037 236)" fill="#831919"/>
<ellipse cx="157.437" cy="243.702" rx="1.20483" ry="2.39087" transform="rotate(38.796 157.437 243.702)" fill="#831919"/>
<rect x="158.932" y="236" width="7" height="2.44616" transform="rotate(52.1848 158.932 236)" fill="#831919"/>
<ellipse cx="161.577" cy="243.528" rx="1.20483" ry="2.61443" transform="rotate(38.796 161.577 243.528)" fill="#831919"/>
<rect x="38" y="255" width="40" height="36" fill="#434343"/>
<ellipse cx="58" cy="257.5" rx="20" ry="28.5" fill="#434343"/>
<path d="M52.9805 231.961L53.0211 226.8L63.0208 226.878L62.9802 232.039" stroke="#434343"/>
<rect x="43" y="256" width="20" height="34" fill="#C4C4C4"/>
<ellipse cx="53" cy="256" rx="10" ry="6" fill="#C4C4C4"/>
<path d="M53 282L43.4737 274.5H62.5263L53 282Z" fill="#9C9C9C"/>
<path d="M68 236C71.1667 239.333 77.9 247.1 79.5 251.5C81.5 257 83.5 266.5 79.5 277C76.3 285.4 74.5 287.5 74 287.5" stroke="#434343" stroke-width="3"/>
<ellipse cx="70.5" cy="281.5" rx="3.5" ry="6.5" fill="#3D76CC"/>
<rect x="66" y="281" width="9" height="9" fill="#616161"/>
<rect x="69" y="274" width="3" height="2" fill="#C4C4C4"/>
<rect x="68" y="272" width="5" height="2" fill="#7E7E7E"/>
<defs>
<filter id="filter0_d_116_131" x="40" y="20" width="347" height="301" filterUnits="userSpaceOnUse" color-interpolation-filters="sRGB">
<feFlood flood-opacity="0" result="BackgroundImageFix"/>
<feColorMatrix in="SourceAlpha" type="matrix" values="0 0 0 0 0 0 0 0 0 0 0 0 0 0 0 0 0 0 127 0" result="hardAlpha"/>
<feOffset dy="4"/>
<feGaussianBlur stdDeviation="2"/>
<feComposite in2="hardAlpha" operator="out"/>
<feColorMatrix type="matrix" values="0 0 0 0 0 0 0 0 0 0 0 0 0 0 0 0 0 0 0.25 0"/>
<feBlend mode="normal" in2="BackgroundImageFix" result="effect1_dropShadow_116_131"/>
<feBlend mode="normal" in="SourceGraphic" in2="effect1_dropShadow_116_131" result="shape"/>
</filter>
<filter id="filter1_d_116_131" x="94" y="234" width="318" height="121" filterUnits="userSpaceOnUse" color-interpolation-filters="sRGB">
<feFlood flood-opacity="0" result="BackgroundImageFix"/>
<feColorMatrix in="SourceAlpha" type="matrix" values="0 0 0 0 0 0 0 0 0 0 0 0 0 0 0 0 0 0 127 0" result="hardAlpha"/>
<feOffset dy="4"/>
<feGaussianBlur stdDeviation="2"/>
<feComposite in2="hardAlpha" operator="out"/>
<feColorMatrix type="matrix" values="0 0 0 0 0 0 0 0 0 0 0 0 0 0 0 0 0 0 0.25 0"/>
<feBlend mode="normal" in2="BackgroundImageFix" result="effect1_dropShadow_116_131"/>
<feBlend mode="normal" in="SourceGraphic" in2="effect1_dropShadow_116_131" result="shape"/>
</filter>
</defs>
</svg>
