<svg width="412" height="335" viewBox="0 0 412 335" fill="none" xmlns="http://www.w3.org/2000/svg">
<g filter="url(#filter0_d_116_132)">
<path d="M383 146.5C383 227.41 307.112 293 213.5 293C119.888 293 44 227.41 44 146.5C44 65.5903 119.888 0 213.5 0C307.112 0 383 65.5903 383 146.5Z" fill="#38C9F7" fill-opacity="0.46" shape-rendering="crispEdges"/>
</g>
<mask id="mask0_116_132" style="mask-type:alpha" maskUnits="userSpaceOnUse" x="44" y="0" width="339" height="293">
<path d="M383 146.5C383 227.41 307.112 293 213.5 293C119.888 293 44 227.41 44 146.5C44 65.5903 119.888 0 213.5 0C307.112 0 383 65.5903 383 146.5Z" fill="#38C9F7" fill-opacity="0.46"/>
</mask>
<g mask="url(#mask0_116_132)">
<path d="M-112.979 92.9381C-176.553 99.4098 -179.681 129.791 -173.298 144.172V148.667L-180 279H169.468L291.043 131.5C276.043 124.309 182.734 79.6351 147.5 87.5449C103.457 97.4323 79.4681 144.172 0.957443 139.678C-77.5532 135.184 -33.5106 84.8484 -112.979 92.9381Z" fill="#A5430C"/>
<path d="M-48.8392 100.125C-138.157 107.564 -142.552 142.486 -133.584 159.018V164.184L-143 314H347.981L426 107.357C404.926 99.0914 350.402 84.8331 300.901 93.9254C239.024 105.291 221.537 159.018 111.234 153.852C0.931458 148.686 62.8085 90.8257 -48.8392 100.125Z" fill="#C1D834"/>
<path d="M316.021 379.062C379.596 372.59 382.723 342.209 376.34 327.828V323.333L383.043 193L33.5745 193L-88 340.5C-73 347.691 20.3085 392.365 55.5425 384.455C99.5851 374.568 123.574 327.828 202.085 332.322C280.596 336.816 236.553 387.152 316.021 379.062Z" fill="#0C40A5"/>
</g>
<path d="M383 146.5C383 227.41 307.112 293 213.5 293C119.888 293 44 227.41 44 146.5C44 65.5903 119.888 0 213.5 0C307.112 0 383 65.5903 383 146.5Z" fill="#38C9F7" fill-opacity="0.46"/>
<mask id="mask1_116_132" style="mask-type:alpha" maskUnits="userSpaceOnUse" x="44" y="0" width="339" height="293">
<path d="M383 146.5C383 227.41 307.112 293 213.5 293C119.888 293 44 227.41 44 146.5C44 65.5903 119.888 0 213.5 0C307.112 0 383 65.5903 383 146.5Z" fill="#38C9F7" fill-opacity="0.46"/>
</mask>
<g mask="url(#mask1_116_132)">
<path d="M-112.979 92.9381C-176.553 99.4098 -179.681 129.791 -173.298 144.172V148.667L-180 279H169.468L291.043 131.5C276.043 124.309 182.734 79.6351 147.5 87.5449C103.457 97.4323 79.4681 144.172 0.957443 139.678C-77.5532 135.184 -33.5106 84.8484 -112.979 92.9381Z" fill="#A5430C"/>
<path d="M-48.8392 100.125C-138.157 107.564 -142.552 142.486 -133.584 159.018V164.184L-143 314H347.981L426 107.357C404.926 99.0914 350.402 84.8331 300.901 93.9254C239.024 105.291 221.537 159.018 111.234 153.852C0.931458 148.686 62.8085 90.8257 -48.8392 100.125Z" fill="#C1D834"/>
<path d="M316.021 379.062C379.596 372.59 382.723 342.209 376.34 327.828V323.333L383.043 193L33.5745 193L-88 340.5C-73 347.691 20.3085 392.365 55.5425 384.455C99.5851 374.568 123.574 327.828 202.085 332.322C280.596 336.816 236.553 387.152 316.021 379.062Z" fill="#0C40A5"/>
</g>
<ellipse cx="73" cy="35" rx="34" ry="30" fill="#FAFF00"/>
<rect x="287" y="82" width="7" height="18" fill="#8D4444"/>
<path d="M290.5 68L305.655 92H275.345L290.5 68Z" fill="#1E893C"/>
<path d="M290.5 61L299.593 76.75H281.407L290.5 61Z" fill="#1E893C"/>
<path d="M290.5 65L303.057 84.5H277.943L290.5 65Z" fill="#1E893C"/>
<rect x="310" y="95" width="7" height="18" fill="#8D4444"/>
<path d="M313.5 81L328.655 105H298.345L313.5 81Z" fill="#1E893C"/>
<path d="M313.5 74L322.593 89.75H304.407L313.5 74Z" fill="#1E893C"/>
<path d="M313.5 78L326.057 97.5H300.943L313.5 78Z" fill="#1E893C"/>
<rect x="285" y="146" width="7" height="18" fill="#8D4444"/>
<path d="M288.5 132L303.655 156H273.345L288.5 132Z" fill="#1E893C"/>
<path d="M288.5 125L297.593 140.75H279.407L288.5 125Z" fill="#1E893C"/>
<path d="M288.5 129L301.057 148.5H275.943L288.5 129Z" fill="#1E893C"/>
<rect x="308" y="157" width="7" height="18" fill="#8D4444"/>
<path d="M311.5 143L326.655 167H296.345L311.5 143Z" fill="#1E893C"/>
<path d="M311.5 136L320.593 151.75H302.407L311.5 136Z" fill="#1E893C"/>
<path d="M311.5 140L324.057 159.5H298.943L311.5 140Z" fill="#1E893C"/>
<rect x="300" y="126" width="7" height="18" fill="#8D4444"/>
<path d="M303.5 112L318.655 136H288.345L303.5 112Z" fill="#1E893C"/>
<path d="M303.5 105L312.593 120.75H294.407L303.5 105Z" fill="#1E893C"/>
<path d="M303.5 109L316.057 128.5H290.943L303.5 109Z" fill="#1E893C"/>
<rect x="356" y="137" width="7" height="18" fill="#8D4444"/>
<path d="M359.5 123L374.655 147H344.345L359.5 123Z" fill="#1E893C"/>
<path d="M359.5 116L368.593 131.75H350.407L359.5 116Z" fill="#1E893C"/>
<path d="M359.5 120L372.057 139.5H346.943L359.5 120Z" fill="#1E893C"/>
<rect x="328" y="143" width="7" height="18" fill="#8D4444"/>
<path d="M331.5 129L346.655 153H316.345L331.5 129Z" fill="#1E893C"/>
<path d="M331.5 122L340.593 137.75H322.407L331.5 122Z" fill="#1E893C"/>
<path d="M331.5 126L344.057 145.5H318.943L331.5 126Z" fill="#1E893C"/>
<rect x="258" y="129" width="7" height="18" fill="#8D4444"/>
<path d="M261.5 115L276.655 139H246.345L261.5 115Z" fill="#1E893C"/>
<path d="M261.5 108L270.593 123.75H252.407L261.5 108Z" fill="#1E893C"/>
<path d="M261.5 112L274.057 131.5H248.943L261.5 112Z" fill="#1E893C"/>
<rect x="335" y="113" width="7" height="18" fill="#8D4444"/>
<path d="M338.5 99L353.655 123H323.345L338.5 99Z" fill="#1E893C"/>
<path d="M338.5 92L347.593 107.75H329.407L338.5 92Z" fill="#1E893C"/>
<path d="M338.5 96L351.057 115.5H325.943L338.5 96Z" fill="#1E893C"/>
<rect x="275" y="107" width="7" height="18" fill="#8D4444"/>
<path d="M278.5 93L293.655 117H263.345L278.5 93Z" fill="#1E893C"/>
<path d="M278.5 86L287.593 101.75H269.407L278.5 86Z" fill="#1E893C"/>
<path d="M278.5 90L291.057 109.5H265.943L278.5 90Z" fill="#1E893C"/>
<g filter="url(#filter1_d_116_132)">
<ellipse cx="253" cy="270.5" rx="155" ry="56.5" fill="#827F42"/>
</g>
<path d="M209.826 273.703C208.809 273.003 208.172 271.744 207.965 269.951C207.758 268.16 207.99 265.898 208.65 263.308C209.967 258.131 212.961 251.747 217.333 245.4C221.705 239.052 226.601 233.979 230.969 230.902C233.154 229.363 235.184 228.34 236.931 227.894C238.68 227.448 240.083 227.595 241.1 228.295C242.117 228.995 242.754 230.254 242.961 232.047C243.168 233.839 242.935 236.1 242.276 238.691C240.959 243.868 237.965 250.251 233.593 256.599C229.221 262.946 224.324 268.019 219.957 271.096C217.772 272.635 215.742 273.659 213.995 274.104C212.246 274.55 210.843 274.404 209.826 273.703Z" fill="#5C5C5C" stroke="black"/>
<ellipse cx="226.124" cy="218.325" rx="24.3723" ry="7.0591" transform="rotate(45.4697 226.124 218.325)" fill="#5C5C5C"/>
<path d="M235.654 200.238C235.708 200.927 235.441 201.649 234.831 202.38C234.218 203.112 233.28 203.825 232.063 204.468C229.63 205.754 226.17 206.714 222.263 207.019C218.356 207.323 214.789 206.912 212.186 206.019C210.884 205.573 209.847 205.014 209.128 204.385C208.411 203.758 208.036 203.086 207.982 202.397C207.928 201.708 208.195 200.986 208.805 200.256C209.418 199.523 210.356 198.81 211.574 198.167C214.007 196.882 217.466 195.922 221.373 195.617C225.28 195.312 228.847 195.724 231.45 196.616C232.752 197.063 233.79 197.622 234.509 198.251C235.225 198.877 235.6 199.549 235.654 200.238Z" fill="#B0B0B0" stroke="black"/>
<path d="M219.861 279.459C218.967 280.31 217.604 280.675 215.807 280.508C214.011 280.342 211.846 279.649 209.446 278.471C204.651 276.117 199.02 271.874 193.708 266.289C188.396 260.705 184.439 254.869 182.327 249.962C181.27 247.507 180.686 245.31 180.61 243.508C180.533 241.705 180.965 240.362 181.86 239.511C182.754 238.66 184.117 238.296 185.914 238.462C187.71 238.628 189.875 239.321 192.275 240.499C197.07 242.853 202.701 247.097 208.013 252.681C213.325 258.265 217.282 264.101 219.394 269.008C220.451 271.463 221.035 273.66 221.111 275.462C221.188 277.265 220.756 278.608 219.861 279.459Z" fill="#4A4A4A" stroke="black"/>
<ellipse cx="220.141" cy="272.063" rx="15.8781" ry="12.0779" transform="rotate(1.2644 220.141 272.063)" fill="#4A4A4A"/>
<ellipse cx="174.322" cy="259.493" rx="22.9547" ry="7.0591" transform="rotate(-60.9335 174.322 259.493)" fill="#4A4A4A"/>
<path d="M171.34 276.225C171.35 276.916 171.038 277.619 170.382 278.309C169.723 279.001 168.741 279.653 167.486 280.217C164.975 281.344 161.461 282.081 157.543 282.136C153.625 282.19 150.091 281.552 147.551 280.495C146.28 279.966 145.28 279.342 144.603 278.668C143.928 277.997 143.596 277.302 143.587 276.611C143.577 275.92 143.889 275.217 144.545 274.527C145.203 273.835 146.185 273.183 147.441 272.619C149.951 271.492 153.465 270.755 157.384 270.7C161.302 270.646 164.835 271.284 167.376 272.341C168.647 272.87 169.647 273.494 170.324 274.168C170.999 274.839 171.33 275.534 171.34 276.225Z" fill="#B0B0B0" stroke="black"/>
<ellipse cx="260.278" cy="271.073" rx="38.1619" ry="12.7219" transform="rotate(-0.528258 260.278 271.073)" fill="black"/>
<rect x="220" y="260" width="54" height="23" fill="black"/>
<ellipse cx="255.97" cy="279.202" rx="31.5" ry="5.5" transform="rotate(-8.70188 255.97 279.202)" fill="#242424"/>
<ellipse cx="220" cy="284" rx="7" ry="4" fill="#FCE3E3"/>
<ellipse cx="308" cy="266.5" rx="16" ry="15.5" fill="#FCE3E3"/>
<rect x="314.804" y="241" width="2" height="16.5427" transform="rotate(9.76005 314.804 241)" fill="black"/>
<mask id="mask2_116_132" style="mask-type:alpha" maskUnits="userSpaceOnUse" x="292" y="250" width="32" height="33">
<ellipse cx="308" cy="266.5" rx="16" ry="15.5" transform="rotate(8.57881 308 266.5)" fill="#C4C4C4"/>
</mask>
<g mask="url(#mask2_116_132)">
<path d="M313.875 247.666L307.685 288.701L327.619 280.584L330.005 264.763L313.875 247.666Z" fill="#0B0B0B" stroke="black"/>
</g>
<ellipse cx="223.415" cy="186.461" rx="14.7809" ry="13.7782" transform="rotate(-2.70583 223.415 186.461)" fill="#EAE7E7"/>
<ellipse cx="57" cy="259" rx="57" ry="27" fill="#827F42"/>
<rect x="34" y="244" width="47" height="25" fill="#C4C4C4"/>
<ellipse cx="43" cy="261.5" rx="6" ry="5.5" fill="#535353"/>
<ellipse cx="73" cy="261.5" rx="6" ry="5.5" fill="#535353"/>
<path d="M49 243.5V236H66V243.5" stroke="black" stroke-width="3"/>
<rect x="51" y="259" width="14" height="7" fill="#AAAAAA"/>
<path d="M47 251H50H52" stroke="black"/>
<path d="M55 251H58H60" stroke="black"/>
<path d="M63 251H66H68" stroke="black"/>
<ellipse cx="107.233" cy="203.846" rx="17.7667" ry="10.1538" fill="white"/>
<ellipse rx="13.2327" ry="5.76312" transform="matrix(0.692119 -0.721783 0.562384 0.826876 99.133 195.317)" fill="white"/>
<ellipse rx="9.42862" ry="5.25606" transform="matrix(0.998683 -0.0513027 0.0334838 0.999439 99.0589 186.737)" fill="white"/>
<path d="M84.3297 185.963L95.1091 182.064L94.4496 191.991L84.3297 185.963Z" fill="#FEC703"/>
<ellipse cx="143.5" cy="49.5" rx="20.5" ry="18.5" fill="white"/>
<ellipse cx="127.5" cy="54" rx="15.5" ry="14" fill="white"/>
<ellipse cx="163.5" cy="55" rx="14.5" ry="12" fill="white"/>
<ellipse cx="260.5" cy="31.5" rx="20.5" ry="18.5" fill="white"/>
<ellipse cx="244.5" cy="36" rx="15.5" ry="14" fill="white"/>
<ellipse cx="280.5" cy="37" rx="14.5" ry="12" fill="white"/>
<defs>
<filter id="filter0_d_116_132" x="40" y="0" width="347" height="301" filterUnits="userSpaceOnUse" color-interpolation-filters="sRGB">
<feFlood flood-opacity="0" result="BackgroundImageFix"/>
<feColorMatrix in="SourceAlpha" type="matrix" values="0 0 0 0 0 0 0 0 0 0 0 0 0 0 0 0 0 0 127 0" result="hardAlpha"/>
<feOffset dy="4"/>
<feGaussianBlur stdDeviation="2"/>
<feComposite in2="hardAlpha" operator="out"/>
<feColorMatrix type="matrix" values="0 0 0 0 0 0 0 0 0 0 0 0 0 0 0 0 0 0 0.25 0"/>
<feBlend mode="normal" in2="BackgroundImageFix" result="effect1_dropShadow_116_132"/>
<feBlend mode="normal" in="SourceGraphic" in2="effect1_dropShadow_116_132" result="shape"/>
</filter>
<filter id="filter1_d_116_132" x="94" y="214" width="318" height="121" filterUnits="userSpaceOnUse" color-interpolation-filters="sRGB">
<feFlood flood-opacity="0" result="BackgroundImageFix"/>
<feColorMatrix in="SourceAlpha" type="matrix" values="0 0 0 0 0 0 0 0 0 0 0 0 0 0 0 0 0 0 127 0" result="hardAlpha"/>
<feOffset dy="4"/>
<feGaussianBlur stdDeviation="2"/>
<feComposite in2="hardAlpha" operator="out"/>
<feColorMatrix type="matrix" values="0 0 0 0 0 0 0 0 0 0 0 0 0 0 0 0 0 0 0.25 0"/>
<feBlend mode="normal" in2="BackgroundImageFix" result="effect1_dropShadow_116_132"/>
<feBlend mode="normal" in="SourceGraphic" in2="effect1_dropShadow_116_132" result="shape"/>
</filter>
</defs>
</svg>
