<svg width="412" height="337" viewBox="0 0 412 337" fill="none" xmlns="http://www.w3.org/2000/svg">
<g filter="url(#filter0_d_116_132)">
<path d="M383 148.5C383 229.41 307.112 295 213.5 295C119.888 295 44 229.41 44 148.5C44 67.5903 119.888 2 213.5 2C307.112 2 383 67.5903 383 148.5Z" fill="#38C9F7" fill-opacity="0.46" shape-rendering="crispEdges"/>
</g>
<mask id="mask0_116_132" style="mask-type:alpha" maskUnits="userSpaceOnUse" x="44" y="2" width="339" height="293">
<path d="M383 148.5C383 229.41 307.112 295 213.5 295C119.888 295 44 229.41 44 148.5C44 67.5903 119.888 2 213.5 2C307.112 2 383 67.5903 383 148.5Z" fill="#38C9F7" fill-opacity="0.46" shape-rendering="crispEdges"/>
<path d="M383 148.5C383 229.41 307.112 295 213.5 295C119.888 295 44 229.41 44 148.5C44 67.5903 119.888 2 213.5 2C307.112 2 383 67.5903 383 148.5Z" stroke="black" shape-rendering="crispEdges"/>
<path d="M383 148.5C383 229.41 307.112 295 213.5 295C119.888 295 44 229.41 44 148.5C44 67.5903 119.888 2 213.5 2C307.112 2 383 67.5903 383 148.5Z" stroke="black" stroke-opacity="0.2" shape-rendering="crispEdges"/>
</mask>
<g mask="url(#mask0_116_132)">
<path d="M-112.979 94.9381C-176.553 101.41 -179.681 131.791 -173.298 146.172V150.667L-180 281H169.468L291.043 133.5C276.043 126.309 182.734 81.6351 147.5 89.5449C103.457 99.4323 79.4681 146.172 0.957443 141.678C-77.5532 137.184 -33.5106 86.8484 -112.979 94.9381Z" fill="#A5430C"/>
<path d="M-48.8392 102.125C-138.157 109.564 -142.552 144.486 -133.584 161.018V166.184L-143 316H347.981L426 109.357C404.926 101.091 350.402 86.8331 300.901 95.9254C239.024 107.291 221.537 161.018 111.234 155.852C0.931458 150.686 62.8085 92.8257 -48.8392 102.125Z" fill="#C1D834"/>
<path d="M316.021 381.062C379.596 374.59 382.723 344.209 376.34 329.828V325.333L383.043 195L33.5745 195L-88 342.5C-73 349.691 20.3085 394.365 55.5425 386.455C99.5851 376.568 123.574 329.828 202.085 334.322C280.596 338.816 236.553 389.152 316.021 381.062Z" fill="#0C40A5"/>
</g>
<g filter="url(#filter1_d_116_132)">
<path d="M383 148.5C383 229.41 307.112 295 213.5 295C119.888 295 44 229.41 44 148.5C44 67.5903 119.888 2 213.5 2C307.112 2 383 67.5903 383 148.5Z" fill="#38C9F7" fill-opacity="0.46" shape-rendering="crispEdges"/>
</g>
<mask id="mask1_116_132" style="mask-type:alpha" maskUnits="userSpaceOnUse" x="44" y="2" width="339" height="293">
<path d="M383 148.5C383 229.41 307.112 295 213.5 295C119.888 295 44 229.41 44 148.5C44 67.5903 119.888 2 213.5 2C307.112 2 383 67.5903 383 148.5Z" fill="#38C9F7" fill-opacity="0.46" shape-rendering="crispEdges"/>
<path d="M383 148.5C383 229.41 307.112 295 213.5 295C119.888 295 44 229.41 44 148.5C44 67.5903 119.888 2 213.5 2C307.112 2 383 67.5903 383 148.5Z" stroke="black" shape-rendering="crispEdges"/>
<path d="M383 148.5C383 229.41 307.112 295 213.5 295C119.888 295 44 229.41 44 148.5C44 67.5903 119.888 2 213.5 2C307.112 2 383 67.5903 383 148.5Z" stroke="black" stroke-opacity="0.2" shape-rendering="crispEdges"/>
</mask>
<g mask="url(#mask1_116_132)">
<path d="M-112.979 94.9381C-176.553 101.41 -179.681 131.791 -173.298 146.172V150.667L-180 281H169.468L291.043 133.5C276.043 126.309 182.734 81.6351 147.5 89.5449C103.457 99.4323 79.4681 146.172 0.957443 141.678C-77.5532 137.184 -33.5106 86.8484 -112.979 94.9381Z" fill="#A5430C"/>
<path d="M-48.8392 102.125C-138.157 109.564 -142.552 144.486 -133.584 161.018V166.184L-143 316H347.981L426 109.357C404.926 101.091 350.402 86.8331 300.901 95.9254C239.024 107.291 221.537 161.018 111.234 155.852C0.931458 150.686 62.8085 92.8257 -48.8392 102.125Z" fill="#C1D834"/>
<path d="M316.021 381.062C379.596 374.59 382.723 344.209 376.34 329.828V325.333L383.043 195L33.5745 195L-88 342.5C-73 349.691 20.3085 394.365 55.5425 386.455C99.5851 376.568 123.574 329.828 202.085 334.322C280.596 338.816 236.553 389.152 316.021 381.062Z" fill="#0C40A5"/>
</g>
<g filter="url(#filter2_d_116_132)">
<ellipse cx="73" cy="37" rx="34" ry="30" fill="#FAFF00"/>
</g>
<rect x="287" y="84" width="7" height="18" fill="#8D4444"/>
<path d="M290.5 70L305.655 94H275.345L290.5 70Z" fill="#1E893C"/>
<path d="M290.5 63L299.593 78.75H281.407L290.5 63Z" fill="#1E893C"/>
<path d="M290.5 67L303.057 86.5H277.943L290.5 67Z" fill="#1E893C"/>
<rect x="310" y="97" width="7" height="18" fill="#8D4444"/>
<path d="M313.5 83L328.655 107H298.345L313.5 83Z" fill="#1E893C"/>
<path d="M313.5 76L322.593 91.75H304.407L313.5 76Z" fill="#1E893C"/>
<path d="M313.5 80L326.057 99.5H300.943L313.5 80Z" fill="#1E893C"/>
<rect x="285" y="148" width="7" height="18" fill="#8D4444"/>
<path d="M288.5 134L303.655 158H273.345L288.5 134Z" fill="#1E893C"/>
<path d="M288.5 127L297.593 142.75H279.407L288.5 127Z" fill="#1E893C"/>
<path d="M288.5 131L301.057 150.5H275.943L288.5 131Z" fill="#1E893C"/>
<rect x="308" y="159" width="7" height="18" fill="#8D4444"/>
<path d="M311.5 145L326.655 169H296.345L311.5 145Z" fill="#1E893C"/>
<path d="M311.5 138L320.593 153.75H302.407L311.5 138Z" fill="#1E893C"/>
<path d="M311.5 142L324.057 161.5H298.943L311.5 142Z" fill="#1E893C"/>
<rect x="300" y="128" width="7" height="18" fill="#8D4444"/>
<path d="M303.5 114L318.655 138H288.345L303.5 114Z" fill="#1E893C"/>
<path d="M303.5 107L312.593 122.75H294.407L303.5 107Z" fill="#1E893C"/>
<path d="M303.5 111L316.057 130.5H290.943L303.5 111Z" fill="#1E893C"/>
<rect x="356" y="139" width="7" height="18" fill="#8D4444"/>
<path d="M359.5 125L374.655 149H344.345L359.5 125Z" fill="#1E893C"/>
<path d="M359.5 118L368.593 133.75H350.407L359.5 118Z" fill="#1E893C"/>
<path d="M359.5 122L372.057 141.5H346.943L359.5 122Z" fill="#1E893C"/>
<rect x="328" y="145" width="7" height="18" fill="#8D4444"/>
<path d="M331.5 131L346.655 155H316.345L331.5 131Z" fill="#1E893C"/>
<path d="M331.5 124L340.593 139.75H322.407L331.5 124Z" fill="#1E893C"/>
<path d="M331.5 128L344.057 147.5H318.943L331.5 128Z" fill="#1E893C"/>
<rect x="258" y="131" width="7" height="18" fill="#8D4444"/>
<path d="M261.5 117L276.655 141H246.345L261.5 117Z" fill="#1E893C"/>
<path d="M261.5 110L270.593 125.75H252.407L261.5 110Z" fill="#1E893C"/>
<path d="M261.5 114L274.057 133.5H248.943L261.5 114Z" fill="#1E893C"/>
<rect x="335" y="115" width="7" height="18" fill="#8D4444"/>
<path d="M338.5 101L353.655 125H323.345L338.5 101Z" fill="#1E893C"/>
<path d="M338.5 94L347.593 109.75H329.407L338.5 94Z" fill="#1E893C"/>
<path d="M338.5 98L351.057 117.5H325.943L338.5 98Z" fill="#1E893C"/>
<rect x="275" y="109" width="7" height="18" fill="#8D4444"/>
<path d="M278.5 95L293.655 119H263.345L278.5 95Z" fill="#1E893C"/>
<path d="M278.5 88L287.593 103.75H269.407L278.5 88Z" fill="#1E893C"/>
<path d="M278.5 92L291.057 111.5H265.943L278.5 92Z" fill="#1E893C"/>
<g filter="url(#filter3_d_116_132)">
<ellipse cx="253" cy="272.5" rx="155" ry="56.5" fill="#827F42"/>
</g>
<path d="M209.826 275.703C208.809 275.003 208.172 273.744 207.965 271.951C207.758 270.16 207.99 267.898 208.65 265.308C209.967 260.131 212.961 253.747 217.333 247.4C221.705 241.052 226.601 235.979 230.969 232.902C233.154 231.363 235.184 230.34 236.931 229.894C238.68 229.448 240.083 229.595 241.1 230.295C242.117 230.995 242.754 232.254 242.961 234.047C243.168 235.839 242.935 238.1 242.276 240.691C240.959 245.868 237.965 252.251 233.593 258.599C229.221 264.946 224.324 270.019 219.957 273.096C217.772 274.635 215.742 275.659 213.995 276.104C212.246 276.55 210.843 276.404 209.826 275.703Z" fill="#5C5C5C" stroke="black"/>
<ellipse cx="226.124" cy="220.325" rx="24.3723" ry="7.0591" transform="rotate(45.4697 226.124 220.325)" fill="#5C5C5C"/>
<path d="M235.654 202.238C235.708 202.927 235.441 203.649 234.831 204.38C234.218 205.112 233.28 205.825 232.063 206.468C229.63 207.754 226.17 208.714 222.263 209.019C218.356 209.323 214.789 208.912 212.186 208.019C210.884 207.573 209.847 207.014 209.128 206.385C208.411 205.758 208.036 205.086 207.982 204.397C207.928 203.708 208.195 202.986 208.805 202.256C209.418 201.523 210.356 200.81 211.574 200.167C214.007 198.882 217.466 197.922 221.373 197.617C225.28 197.312 228.847 197.724 231.45 198.616C232.752 199.063 233.79 199.622 234.509 200.251C235.225 200.877 235.6 201.549 235.654 202.238Z" fill="#B0B0B0" stroke="black"/>
<path d="M219.861 281.459C218.967 282.31 217.604 282.675 215.807 282.508C214.011 282.342 211.846 281.649 209.446 280.471C204.651 278.117 199.02 273.874 193.708 268.289C188.396 262.705 184.439 256.869 182.327 251.962C181.27 249.507 180.686 247.31 180.61 245.508C180.533 243.705 180.965 242.362 181.86 241.511C182.754 240.66 184.117 240.296 185.914 240.462C187.71 240.628 189.875 241.321 192.275 242.499C197.07 244.853 202.701 249.097 208.013 254.681C213.325 260.265 217.282 266.101 219.394 271.008C220.451 273.463 221.035 275.66 221.111 277.462C221.188 279.265 220.756 280.608 219.861 281.459Z" fill="#4A4A4A" stroke="black"/>
<ellipse cx="220.141" cy="274.063" rx="15.8781" ry="12.0779" transform="rotate(1.2644 220.141 274.063)" fill="#4A4A4A"/>
<ellipse cx="174.322" cy="261.493" rx="22.9547" ry="7.0591" transform="rotate(-60.9335 174.322 261.493)" fill="#4A4A4A"/>
<path d="M171.34 278.225C171.35 278.916 171.038 279.619 170.382 280.309C169.723 281.001 168.741 281.653 167.486 282.217C164.975 283.344 161.461 284.081 157.543 284.136C153.625 284.19 150.091 283.552 147.551 282.495C146.28 281.966 145.28 281.342 144.603 280.668C143.928 279.997 143.596 279.302 143.587 278.611C143.577 277.92 143.889 277.217 144.545 276.527C145.203 275.835 146.185 275.183 147.441 274.619C149.951 273.492 153.465 272.755 157.384 272.7C161.302 272.646 164.835 273.284 167.376 274.341C168.647 274.87 169.647 275.494 170.324 276.168C170.999 276.839 171.33 277.534 171.34 278.225Z" fill="#B0B0B0" stroke="black"/>
<ellipse cx="260.278" cy="273.073" rx="38.1619" ry="12.7219" transform="rotate(-0.528258 260.278 273.073)" fill="black"/>
<rect x="220" y="262" width="54" height="23" fill="black"/>
<ellipse cx="255.97" cy="281.202" rx="31.5" ry="5.5" transform="rotate(-8.70188 255.97 281.202)" fill="#242424"/>
<ellipse cx="220" cy="286" rx="7" ry="4" fill="#FCE3E3"/>
<ellipse cx="308" cy="268.5" rx="16" ry="15.5" fill="#FCE3E3"/>
<rect x="314.804" y="243" width="2" height="16.5427" transform="rotate(9.76005 314.804 243)" fill="black"/>
<mask id="mask2_116_132" style="mask-type:alpha" maskUnits="userSpaceOnUse" x="292" y="252" width="32" height="33">
<ellipse cx="308" cy="268.5" rx="16" ry="15.5" transform="rotate(8.57881 308 268.5)" fill="#C4C4C4"/>
</mask>
<g mask="url(#mask2_116_132)">
<path d="M313.875 249.666L307.685 290.701L327.619 282.584L330.005 266.763L313.875 249.666Z" fill="#0B0B0B" stroke="black"/>
</g>
<ellipse cx="223.415" cy="188.461" rx="14.7809" ry="13.7782" transform="rotate(-2.70583 223.415 188.461)" fill="#EAE7E7"/>
<ellipse cx="57" cy="261" rx="57" ry="27" fill="#827F42"/>
<rect x="34" y="246" width="47" height="25" fill="#C4C4C4"/>
<ellipse cx="43" cy="263.5" rx="6" ry="5.5" fill="#535353"/>
<ellipse cx="73" cy="263.5" rx="6" ry="5.5" fill="#535353"/>
<path d="M49 245.5V238H66V245.5" stroke="black" stroke-width="3"/>
<rect x="51" y="261" width="14" height="7" fill="#AAAAAA"/>
<path d="M47 253H50H52" stroke="black"/>
<path d="M55 253H58H60" stroke="black"/>
<path d="M63 253H66H68" stroke="black"/>
<ellipse cx="107.233" cy="205.846" rx="17.7667" ry="10.1538" fill="white"/>
<ellipse rx="13.2327" ry="5.76312" transform="matrix(0.692119 -0.721783 0.562384 0.826876 99.133 197.317)" fill="white"/>
<ellipse rx="9.42862" ry="5.25606" transform="matrix(0.998683 -0.0513027 0.0334838 0.999439 99.0589 188.737)" fill="white"/>
<path d="M84.3297 187.963L95.1091 184.064L94.4496 193.991L84.3297 187.963Z" fill="#FEC703"/>
<ellipse cx="143.5" cy="51.5" rx="20.5" ry="18.5" fill="white"/>
<ellipse cx="127.5" cy="56" rx="15.5" ry="14" fill="white"/>
<ellipse cx="163.5" cy="57" rx="14.5" ry="12" fill="white"/>
<ellipse cx="260.5" cy="33.5" rx="20.5" ry="18.5" fill="white"/>
<ellipse cx="244.5" cy="38" rx="15.5" ry="14" fill="white"/>
<ellipse cx="280.5" cy="39" rx="14.5" ry="12" fill="white"/>
<defs>
<filter id="filter0_d_116_132" x="40" y="2" width="347" height="301" filterUnits="userSpaceOnUse" color-interpolation-filters="sRGB">
<feFlood flood-opacity="0" result="BackgroundImageFix"/>
<feColorMatrix in="SourceAlpha" type="matrix" values="0 0 0 0 0 0 0 0 0 0 0 0 0 0 0 0 0 0 127 0" result="hardAlpha"/>
<feOffset dy="4"/>
<feGaussianBlur stdDeviation="2"/>
<feComposite in2="hardAlpha" operator="out"/>
<feColorMatrix type="matrix" values="0 0 0 0 0 0 0 0 0 0 0 0 0 0 0 0 0 0 0.25 0"/>
<feBlend mode="normal" in2="BackgroundImageFix" result="effect1_dropShadow_116_132"/>
<feBlend mode="normal" in="SourceGraphic" in2="effect1_dropShadow_116_132" result="shape"/>
</filter>
<filter id="filter1_d_116_132" x="40" y="2" width="347" height="301" filterUnits="userSpaceOnUse" color-interpolation-filters="sRGB">
<feFlood flood-opacity="0" result="BackgroundImageFix"/>
<feColorMatrix in="SourceAlpha" type="matrix" values="0 0 0 0 0 0 0 0 0 0 0 0 0 0 0 0 0 0 127 0" result="hardAlpha"/>
<feOffset dy="4"/>
<feGaussianBlur stdDeviation="2"/>
<feComposite in2="hardAlpha" operator="out"/>
<feColorMatrix type="matrix" values="0 0 0 0 0 0 0 0 0 0 0 0 0 0 0 0 0 0 0.25 0"/>
<feBlend mode="normal" in2="BackgroundImageFix" result="effect1_dropShadow_116_132"/>
<feBlend mode="normal" in="SourceGraphic" in2="effect1_dropShadow_116_132" result="shape"/>
</filter>
<filter id="filter2_d_116_132" x="32" y="0" width="82" height="74" filterUnits="userSpaceOnUse" color-interpolation-filters="sRGB">
<feFlood flood-opacity="0" result="BackgroundImageFix"/>
<feColorMatrix in="SourceAlpha" type="matrix" values="0 0 0 0 0 0 0 0 0 0 0 0 0 0 0 0 0 0 127 0" result="hardAlpha"/>
<feMorphology radius="3" operator="dilate" in="SourceAlpha" result="effect1_dropShadow_116_132"/>
<feOffset/>
<feGaussianBlur stdDeviation="2"/>
<feComposite in2="hardAlpha" operator="out"/>
<feColorMatrix type="matrix" values="0 0 0 0 0.98 0 0 0 0 1 0 0 0 0 0 0 0 0 1 0"/>
<feBlend mode="normal" in2="BackgroundImageFix" result="effect1_dropShadow_116_132"/>
<feBlend mode="normal" in="SourceGraphic" in2="effect1_dropShadow_116_132" result="shape"/>
</filter>
<filter id="filter3_d_116_132" x="94" y="216" width="318" height="121" filterUnits="userSpaceOnUse" color-interpolation-filters="sRGB">
<feFlood flood-opacity="0" result="BackgroundImageFix"/>
<feColorMatrix in="SourceAlpha" type="matrix" values="0 0 0 0 0 0 0 0 0 0 0 0 0 0 0 0 0 0 127 0" result="hardAlpha"/>
<feOffset dy="4"/>
<feGaussianBlur stdDeviation="2"/>
<feComposite in2="hardAlpha" operator="out"/>
<feColorMatrix type="matrix" values="0 0 0 0 0 0 0 0 0 0 0 0 0 0 0 0 0 0 0.25 0"/>
<feBlend mode="normal" in2="BackgroundImageFix" result="effect1_dropShadow_116_132"/>
<feBlend mode="normal" in="SourceGraphic" in2="effect1_dropShadow_116_132" result="shape"/>
</filter>
</defs>
</svg>
